<?xml version="1.0" encoding="UTF-8" standalone="no"?>
<svg
   xmlns:dc="http://purl.org/dc/elements/1.1/"
   xmlns:cc="http://creativecommons.org/ns#"
   xmlns:rdf="http://www.w3.org/1999/02/22-rdf-syntax-ns#"
   xmlns:svg="http://www.w3.org/2000/svg"
   xmlns="http://www.w3.org/2000/svg"
   xmlns:sodipodi="http://sodipodi.sourceforge.net/DTD/sodipodi-0.dtd"
   xmlns:inkscape="http://www.inkscape.org/namespaces/inkscape"
   width="1792"
   height="1792"
   viewBox="0 0 1792 1792"
   id="svg4246"
   version="1.1"
   inkscape:version="0.91 r13725"
   sodipodi:docname="rotate-right.svg">
  <metadata
     id="metadata4254">
    <rdf:RDF>
      <cc:Work
         rdf:about="">
        <dc:format>image/svg+xml</dc:format>
        <dc:type
           rdf:resource="http://purl.org/dc/dcmitype/StillImage" />
      </cc:Work>
    </rdf:RDF>
  </metadata>
  <defs
     id="defs4252" />
  <sodipodi:namedview
     pagecolor="#ffffff"
     bordercolor="#666666"
     borderopacity="1"
     objecttolerance="10"
     gridtolerance="10"
     guidetolerance="10"
     inkscape:pageopacity="0"
     inkscape:pageshadow="2"
     inkscape:window-width="1914"
     inkscape:window-height="2154"
     id="namedview4250"
     showgrid="false"
     inkscape:zoom="0.13169643"
     inkscape:cx="-1492.0678"
     inkscape:cy="896"
     inkscape:window-x="2160"
     inkscape:window-y="584"
     inkscape:window-maximized="0"
     inkscape:current-layer="svg4246" />
  <rect
     style="fill:#000000;fill-opacity:0.39078501;stroke:none;stroke-width:44.40000153;stroke-miterlimit:4;stroke-dasharray:none;stroke-dashoffset:0;stroke-opacity:1"
     id="rect4191"
     width="1792"
     height="1792"
     x="0"
     y="0"
     ry="100"
     rx="100" />
  <path
     fill="#EEEEEE"
     stroke-width="3"
     stroke="#333333"
     d="M1664 256v448q0 26-19 45t-45 19h-448q-42 0-59-40-17-39 14-69l138-138q-148-137-349-137-104 0-198.5 40.5t-163.5 109.5-109.5 163.5-40.5 198.5 40.5 198.5 109.5 163.5 163.5 109.5 198.5 40.5q119 0 225-52t179-147q7-10 23-12 14 0 25 9l137 138q9 8 9.5 20.5t-7.5 22.5q-109 132-264 204.5t-327 72.5q-156 0-298-61t-245-164-164-245-61-298 61-298 164-245 245-164 298-61q147 0 284.5 55.5t244.5 156.5l130-129q29-31 70-14 39 17 39 59z"
     id="path4248"
     style="stroke:none" />
</svg>
