<?xml version="1.0" encoding="UTF-8" standalone="no"?>
<!-- Created with Inkscape (http://www.inkscape.org/) -->

<svg
   xmlns:dc="http://purl.org/dc/elements/1.1/"
   xmlns:cc="http://creativecommons.org/ns#"
   xmlns:rdf="http://www.w3.org/1999/02/22-rdf-syntax-ns#"
   xmlns:svg="http://www.w3.org/2000/svg"
   xmlns="http://www.w3.org/2000/svg"
   xmlns:sodipodi="http://sodipodi.sourceforge.net/DTD/sodipodi-0.dtd"
   xmlns:inkscape="http://www.inkscape.org/namespaces/inkscape"
   width="744.09448819"
   height="1052.3622047"
   id="svg2"
   version="1.1"
   inkscape:version="0.47 r22583"
   sodipodi:docname="sixpack_logo.pdf"
   inkscape:export-filename="/home/svk/downloads/qwirkle/sixpack_logo.png"
   inkscape:export-xdpi="35.09"
   inkscape:export-ydpi="35.09">
  <defs
     id="defs4">
    <inkscape:perspective
       sodipodi:type="inkscape:persp3d"
       inkscape:vp_x="0 : 526.18109 : 1"
       inkscape:vp_y="0 : 1000 : 0"
       inkscape:vp_z="744.09448 : 526.18109 : 1"
       inkscape:persp3d-origin="372.04724 : 350.78739 : 1"
       id="perspective10" />
    <inkscape:perspective
       id="perspective3004"
       inkscape:persp3d-origin="120 : 86.666667 : 1"
       inkscape:vp_z="240 : 130 : 1"
       inkscape:vp_y="0 : 1000 : 0"
       inkscape:vp_x="0 : 130 : 1"
       sodipodi:type="inkscape:persp3d" />
    <inkscape:perspective
       id="perspective3104"
       inkscape:persp3d-origin="104 : 68.666667 : 1"
       inkscape:vp_z="208 : 103 : 1"
       inkscape:vp_y="0 : 1000 : 0"
       inkscape:vp_x="0 : 103 : 1"
       sodipodi:type="inkscape:persp3d" />
    <inkscape:perspective
       id="perspective3168"
       inkscape:persp3d-origin="120 : 86.666667 : 1"
       inkscape:vp_z="240 : 130 : 1"
       inkscape:vp_y="0 : 1000 : 0"
       inkscape:vp_x="0 : 130 : 1"
       sodipodi:type="inkscape:persp3d" />
    <inkscape:perspective
       id="perspective3244"
       inkscape:persp3d-origin="120 : 86.666667 : 1"
       inkscape:vp_z="240 : 130 : 1"
       inkscape:vp_y="0 : 1000 : 0"
       inkscape:vp_x="0 : 130 : 1"
       sodipodi:type="inkscape:persp3d" />
    <inkscape:perspective
       id="perspective3609"
       inkscape:persp3d-origin="33 : 24 : 1"
       inkscape:vp_z="66 : 36 : 1"
       inkscape:vp_y="0 : 1000 : 0"
       inkscape:vp_x="0 : 36 : 1"
       sodipodi:type="inkscape:persp3d" />
    <inkscape:perspective
       id="perspective3845"
       inkscape:persp3d-origin="33 : 40.333333 : 1"
       inkscape:vp_z="66 : 60.5 : 1"
       inkscape:vp_y="0 : 1000 : 0"
       inkscape:vp_x="0 : 60.5 : 1"
       sodipodi:type="inkscape:persp3d" />
  </defs>
  <sodipodi:namedview
     id="base"
     pagecolor="#ffffff"
     bordercolor="#666666"
     borderopacity="1.0"
     inkscape:pageopacity="0.0"
     inkscape:pageshadow="2"
     inkscape:zoom="0.90368128"
     inkscape:cx="372.04724"
     inkscape:cy="526.18109"
     inkscape:document-units="px"
     inkscape:current-layer="layer1"
     showgrid="false"
     inkscape:window-width="1918"
     inkscape:window-height="1198"
     inkscape:window-x="1920"
     inkscape:window-y="0"
     inkscape:window-maximized="0" />
  <metadata
     id="metadata7">
    <rdf:RDF>
      <cc:Work
         rdf:about="">
        <dc:format>image/svg+xml</dc:format>
        <dc:type
           rdf:resource="http://purl.org/dc/dcmitype/StillImage" />
        <dc:title></dc:title>
      </cc:Work>
    </rdf:RDF>
  </metadata>
  <g
     inkscape:label="Layer 1"
     inkscape:groupmode="layer"
     id="layer1">
    <path
       style="fill:#6c71c4;fill-opacity:1;stroke:#000000;stroke-width:2;stroke-miterlimit:4;stroke-opacity:1;stroke-dasharray:none"
       d="m 378.18973,250.84319 c -54.80035,0 -99.21875,41.52359 -99.21875,92.75 0,46.10941 36.00153,84.34953 83.15625,91.53125 0.31476,7.7446 7.10679,13.9375 15.46875,13.9375 8.29497,0 15.05351,-6.09247 15.46875,-13.75 47.75035,-6.70414 84.34375,-45.21392 84.34375,-91.71875 0,-51.22641 -44.4184,-92.75 -99.21875,-92.75 z"
       id="circle3453" />
    <path
       id="path3096"
       d="m 330.35036,143.77163 c -28.98114,0 -52.50206,25.39983 -52.50206,56.69604 0,63.66753 59.47308,80.36063 99.99999,143.30396 38.31523,-62.55622 100.00001,-81.6681 100.00001,-143.30396 0,-31.29621 -23.52092,-56.69604 -52.50206,-56.69604 -21.02177,0 -39.11473,13.40389 -47.49795,32.68881 -8.38318,-19.28472 -26.47613,-32.68882 -47.49795,-32.68881 z"
       style="fill:#b58900;fill-opacity:1;stroke:#000000;stroke-opacity:1;stroke-width:2;stroke-miterlimit:4;stroke-dasharray:none" />
    <path
       style="font-size:732.08221435999996629px;font-style:normal;font-weight:normal;fill:#268bd2;fill-opacity:1;stroke:#000000;stroke-opacity:1;font-family:Lello;stroke-width:2;stroke-miterlimit:4;stroke-dasharray:none"
       d="m 377.37537,344.59466 c 25.22395,40.80561 58.50863,74.17657 99.85411,100.113 -41.34548,25.94821 -74.63016,59.24384 -99.85411,99.887 -25.41869,-40.64316 -58.80067,-73.93879 -100.14589,-99.887 41.34522,-25.93643 74.7272,-59.30739 100.14589,-100.113 l 0,0 z"
       id="text2199" />
    <path
       style="font-size:732.08221435999996629px;font-style:normal;font-weight:normal;fill:#cb4b16;fill-opacity:1;stroke:#000000;stroke-opacity:1;font-family:Lello;stroke-width:2;stroke-miterlimit:4;stroke-dasharray:none"
       d="m 523.56656,231.85993 c -55.06174,26.27578 -100.00001,82.35864 -100.00001,132.51202 10e-6,22.70021 19.61191,36.46668 44.5,36.46668 21.28178,0 37.6413,-10.07219 43.28126,-25.94555 0.73382,-2.06529 1.13819,-3.00604 2.125,-3.00604 1.27895,0 1.875,2.05044 1.875,5.88888 10e-6,15.40534 -6.0323,33.40347 -14.96875,54.08402 3.85921,-0.89605 15.54983,-3.17851 23.1875,-3.17851 7.63767,0 19.32831,2.28246 23.1875,3.17851 -8.93645,-20.68055 -14.96874,-38.67868 -14.96875,-54.08402 0,-3.83844 0.56481,-5.88888 1.84375,-5.88888 0.98681,0 1.42245,0.94075 2.15625,3.00604 5.63996,15.87336 21.9995,25.94555 43.28125,25.94555 24.88809,0 44.50001,-13.76647 44.5,-36.46668 0,-50.15338 -44.93825,-106.23624 -100,-132.51202 z"
       id="path2169" />
    <g
       transform="matrix(0.84388186,0,0,0.91521913,-103.99489,-118.42474)"
       id="layer1-5"
       inkscape:label="Livello 1"
       style="fill:#d33682;fill-opacity:1;stroke:#000000;stroke-width:2.27576087000000005;stroke-miterlimit:4;stroke-opacity:1;stroke-dasharray:none">
      <path
         id="path3211"
         d="m 408.15639,368.79905 c -28.76625,10e-6 -52.1287,23.36244 -52.1287,52.1287 3e-5,20.49007 11.83186,38.22246 29.04919,46.72311 5.1813,2.55815 -0.47293,9.18044 -4.27747,4.88853 -9.55456,-10.77851 -23.48879,-17.57992 -39.01428,-17.57992 -28.76625,-1e-5 -52.12878,23.36244 -52.12878,52.1287 0,28.76626 23.36268,52.0817 52.12878,52.0817 28.54579,0 51.82793,-22.96106 52.12871,-51.42363 0.0534,-5.0492 7.80286,-5.57226 7.80286,1.22214 0,10.69933 -10.28616,67.52334 -15.79373,78.35757 6.01153,-1.51585 16.03041,-2.77329 22.23342,-2.7733 6.20302,10e-6 16.2219,1.25745 22.23343,2.7733 -5.50757,-10.83423 -15.79373,-67.65824 -15.79373,-78.35757 0,-6.7944 7.74949,-6.27134 7.80286,-1.22214 0.30078,28.46257 23.58298,51.42363 52.1287,51.42363 28.76627,0 52.12867,-23.31544 52.1287,-52.0817 0,-28.76626 -23.36243,-52.12871 -52.1287,-52.1287 -15.52539,0 -29.45971,6.80141 -39.01427,17.57992 -3.80454,4.29191 -9.45877,-2.33038 -4.27747,-4.88853 17.21733,-8.50065 29.04916,-26.23304 29.04918,-46.72311 0,-28.76626 -23.36244,-52.12869 -52.1287,-52.1287 z"
         style="fill:#d33682;fill-opacity:1;stroke:#000000;stroke-width:2.27576087000000005;stroke-miterlimit:4;stroke-opacity:1;stroke-dasharray:none" />
    </g>
    <path
       style="fill:#859900;fill-opacity:1;stroke:#000000;stroke-width:2;stroke-miterlimit:4;stroke-opacity:1;stroke-dasharray:none"
       d="m 375.13152,396.91109 c -22.42123,0 -33.625,11.30738 -33.625,33.90625 l 0,52.53125 0,16.96875 c -13.45273,0 -20.1875,6.75318 -20.1875,20.3125 0,24.85876 17.93854,37.3125 53.8125,37.3125 34.7529,0 52.125,-12.45374 52.125,-37.3125 0,-13.55932 -5.60189,-20.3125 -16.8125,-20.3125 l -1.65625,0 0,-16.96875 0,-52.53125 c 0,-22.59887 -11.23502,-33.90625 -33.65625,-33.90625 z m 0,161.03125 -6.71875,0 0,10.15625 c 0,5.64972 -1.13287,9.02631 -3.375,10.15625 -2.24212,1.12995 -3.91019,2.27631 -5.03125,3.40625 l -13.4375,15.25005 c 23.54229,0 35.3125,-12.9801 35.3125,-38.9688 l -6.75,0 z"
       id="path3791" />
    <text
       xml:space="preserve"
       style="font-size:64px;font-style:normal;font-variant:normal;font-weight:bold;font-stretch:normal;text-align:start;line-height:125%;writing-mode:lr;text-anchor:start;fill:#000000;fill-opacity:1;stroke:none;font-family:Impact;-inkscape-font-specification:Impact Bold"
       x="173.94699"
       y="546.4397"
       id="text4792"
       sodipodi:linespacing="125%"><tspan
         sodipodi:role="line"
         id="tspan4802">SIX</tspan></text>
    <text
       xml:space="preserve"
       style="font-size:64px;font-style:normal;font-variant:normal;font-weight:bold;font-stretch:normal;text-align:start;line-height:125%;writing-mode:lr-tb;text-anchor:start;fill:#000000;fill-opacity:1;stroke:none;font-family:Impact;-inkscape-font-specification:Impact Bold"
       x="458.1261"
       y="543.33319"
       id="text4796"
       sodipodi:linespacing="125%"><tspan
         sodipodi:role="line"
         id="tspan4798"
         x="458.1261"
         y="543.33319">PACK</tspan></text>
  </g>
</svg>
