<?xml version="1.0" encoding="UTF-8" standalone="no"?>
<svg
   xmlns:dc="http://purl.org/dc/elements/1.1/"
   xmlns:cc="http://creativecommons.org/ns#"
   xmlns:rdf="http://www.w3.org/1999/02/22-rdf-syntax-ns#"
   xmlns:svg="http://www.w3.org/2000/svg"
   xmlns="http://www.w3.org/2000/svg"
   xmlns:sodipodi="http://sodipodi.sourceforge.net/DTD/sodipodi-0.dtd"
   xmlns:inkscape="http://www.inkscape.org/namespaces/inkscape"
   width="1792"
   height="1792"
   viewBox="0 0 1792 1792"
   id="svg7208"
   version="1.1"
   inkscape:version="0.91 r13725"
   sodipodi:docname="cancel.svg">
  <metadata
     id="metadata7216">
    <rdf:RDF>
      <cc:Work
         rdf:about="">
        <dc:format>image/svg+xml</dc:format>
        <dc:type
           rdf:resource="http://purl.org/dc/dcmitype/StillImage" />
      </cc:Work>
    </rdf:RDF>
  </metadata>
  <defs
     id="defs7214" />
  <sodipodi:namedview
     pagecolor="#ffffff"
     bordercolor="#666666"
     borderopacity="1"
     objecttolerance="10"
     gridtolerance="10"
     guidetolerance="10"
     inkscape:pageopacity="0"
     inkscape:pageshadow="2"
     inkscape:window-width="1914"
     inkscape:window-height="1074"
     id="namedview7212"
     showgrid="false"
     inkscape:zoom="0.13169643"
     inkscape:cx="-1492.0678"
     inkscape:cy="896"
     inkscape:window-x="4080"
     inkscape:window-y="584"
     inkscape:window-maximized="0"
     inkscape:current-layer="svg7208" />
  <rect
     style="fill:#000000;fill-opacity:0.39078501;stroke:none;stroke-width:44.40000153;stroke-miterlimit:4;stroke-dasharray:none;stroke-dashoffset:0;stroke-opacity:1"
     id="rect4191"
     width="1792"
     height="1792"
     x="0"
     y="0"
     ry="100"
     rx="100" />
  <path
     fill="#EEEEEE"
     stroke-width="3"
     stroke="#333333"
     d="M1440 893q0-161-87-295l-754 753q137 89 297 89 111 0 211.5-43.5t173.5-116.5 116-174.5 43-212.5zm-999 299l755-754q-135-91-300-91-148 0-273 73t-198 199-73 274q0 162 89 299zm1223-299q0 157-61 300t-163.5 246-245 164-298.5 61-298.5-61-245-164-163.5-246-61-300 61-299.5 163.5-245.5 245-164 298.5-61 298.5 61 245 164 163.5 245.5 61 299.5z"
     id="path7210"
     style="stroke:none" />
</svg>
